# AST/ASF file generated using VICON BodyLanguage
# -----------------------------------------------
:version 1.10
:name VICON
:units
  mass 1.0
  length 0.45
  angle deg
:documentation
   .ast/.asf automatically generated from VICON data using
   VICON BodyBuilder and BodyLanguage model FoxedUp or BRILLIANT.MOD
:root
   order TX TY TZ RX RY RZ
   axis XYZ
   position 0 0 0  
   orientation 0 0 0 
:bonedata
  begin
     id 1 
     name lhipjoint
     direction 0.606768 -0.715223 0.346827 
     length 2.41543 
     axis 0 0 0  XYZ
  end
  begin
     id 2 
     name lfemur
     direction 0.34202 -0.939693 0  
     length 7.2778  
     axis 0 0 20  XYZ
    dof rx ry rz
    limits (-160.0 20.0)
           (-70.0 70.0)
           (-60.0 70.0)
  end
  begin
     id 3 
     name ltibia
     direction 0.34202 -0.939693 0   
     length 7.61811   
     axis 0 0 20   XYZ
    dof rx
    limits (-10.0 170.0)
  end
  begin
     id 4 
     name lfoot
     direction 0.0823924 -0.226371 0.97055   
     length 2.33618   
     axis -90 7.62852e-016 20   XYZ
    dof rx rz
    limits (-45.0 90.0)
           (-70.0 20.0)
  end
  begin
     id 5 
     name ltoes
     direction 1.53554e-011 -4.21934e-011 1   
     length 1.17015   
     axis -90 7.62852e-016 20   XYZ
    dof rx
    limits (-90.0 20.0)
  end
  begin
     id 6 
     name rhipjoint
     direction -0.6077 -0.714582 0.346516   
     length 2.4176  
     axis 0 0 0  XYZ 
  end
  begin
     id 7 
     name rfemur
     direction -0.34202 -0.939693 0   
     length 7.28127   
     axis 0 0 -20   XYZ
    dof rx ry rz
    limits (-160.0 20.0)
           (-70.0 70.0)
           (-70.0 60.0)
  end
  begin
     id 8 
     name rtibia
     direction -0.34202 -0.939693 0   
     length 7.77648   
     axis 0 0 -20   XYZ
    dof rx
    limits (-10.0 170.0)
 end
 begin
     id 9 
     name rfoot
     direction -0.0809463 -0.222398 0.97159   
     length 2.37533  
     axis -90 -7.62852e-016 -20   XYZ
    dof rx rz
    limits (-45.0 90.0)
           (-20.0 70.0)
  end
  begin
     id 10 
     name rtoes
     direction -1.53568e-011 -4.21714e-011 1   
     length 1.18972   
     axis -90 -7.62852e-016 -20   XYZ
    dof rx
    limits (-90.0 20.0)
  end
  begin
     id 11 
     name lowerback
     direction 0.010968 0.991932 -0.126297   
     length 2.21698   
     axis 0 0 0   XYZ
    dof rx ry rz
    limits (-20.0 45.0)
           (-30.0 30.0)
           (-30.0 30.0)
  end
  begin
     id 12 
     name upperback
     direction 0.0167007 0.997503 -0.0686276   
     length 2.22371   
     axis 0 0 0   XYZ
    dof rx ry rz
    limits (-20.0 45.0)
           (-30.0 30.0)
           (-30.0 30.0)
  end
  begin
     id 13 
     name thorax
     direction 0.0111721 0.999885 -0.0102878   
     length 2.25242   
     axis 0 0 0   XYZ
    dof rx ry rz
    limits (-20.0 45.0)
           (-30.0 30.0)
           (-30.0 30.0)
  end
  begin
     id 14 
     name lowerneck
     direction -0.0120265 0.990428 0.137508   
     length 1.57674   
     axis 0 0 0   XYZ
    dof rx ry rz
    limits (-20.0 45.0)
           (-30.0 30.0)
           (-30.0 30.0)
  end
  begin
     id 15 
     name upperneck
     direction 0.0175669 0.998907 0.0433089   
     length 1.5618   
     axis 0 0 0   XYZ
    dof rx ry rz
    limits (-20.0 45.0)
           (-30.0 30.0)
           (-30.0 30.0)
  end
  begin
     id 16
     name head
     direction 0.00754609 0.99997 0.00185367  
     length 1.60579  
     axis 0 0 0   XYZ
    dof rx ry rz
    limits (-20.0 45.0)
           (-30.0 30.0)
           (-30.0 30.0)
  end
  begin
     id 17 
     name lclavicle
     direction 0.885866 0.429166 -0.176231  
     length 3.44967  
     axis 0 0 0   XYZ
    dof ry rz
    limits (-20.0 10.0)
           (0.0 20.0)
  end
  begin
     id 18 
     name lhumerus
     direction 1 -4.48973e-011 -1.90255e-027   
     length 5.20607   
     axis 180 -30 -90   XYZ
    dof rx ry rz
    limits (-60.0 90.0)
           (-90.0 90.0)
           (-90.0 90.0)
  end
  begin
     id 19
     name lradius
     direction 1 -4.48956e-011 9.87925e-027   
     length 3.39961   
     axis 180 -30 -90   XYZ
    dof rx
    limits (-10.0 170.0)
  end
  begin
     id 20
     name lwrist
     direction 1 -4.48985e-011 1.73247e-026   
     length 1.6998   
     axis -9.60847e-015 90 90   XYZ
    dof ry
    limits (-180.0 0.0)
 end
  begin
     id 21 
     name lhand
     direction 1 -4.48798e-011 3.46119e-026   
     length 0.519693   
     axis -2.21073e-014 90 90   XYZ
    dof rx rz
    limits (-90.0 90.0)
           (-45.0 45.0)
  end
  begin
     id 22 
     name lfingers
     direction 1 -4.48938e-011 6.92797e-026   
     length 0.41899   
     axis -4.42155e-014 90 90   XYZ
    dof rx
    limits (0.0 90.0)
  end
  begin
     id 23
     name lthumb
     direction 0.707107 -6.34952e-011 0.707107   
     length 0.601588   
     axis -90 45 6.0103e-014   XYZ
    dof rx rz
    limits (-45.0 45.0)
           (-45.0 45.0)
  end
  begin
     id 24 
     name rclavicle
     direction -0.866736 0.456792 -0.200276   
     length 3.45032  
     axis 0 0 0   XYZ 
    dof ry rz
    limits (-10.0 20.0)
           (-20.0 0.0)
  end
  begin
     id 25 
     name rhumerus
     direction -1 -4.4897e-011 8.65094e-028  
     length 5.32214   
     axis 180 30 90   XYZ
    dof rx ry rz
    limits (-90.0 60.0)
           (-90.0 90.0)
           (-90.0 90.0)
  end
  begin
     id 26 
     name rradius
     direction -1 -4.48987e-011 1.08427e-026   
     length 3.51208   
     axis 180 30 90   XYZ
    dof rx
    limits (-10.0 170.0)
  end
  begin
     id 27 
     name rwrist
     direction -1 -4.48961e-011 1.73222e-026   
     length 1.75604   
     axis -9.60847e-015 -90 -90   XYZ
    dof ry
    limits (-180.0 0.0)
  end
  begin
     id 28
     name rhand
     direction -1 -4.48895e-011 3.46314e-026   
     length 0.586681   
     axis -2.21073e-014 -90 -90   XYZ
    dof rx rz
    limits (-90.0 90.0)
           (-45.0 45.0)
  end
  begin
     id 29
     name rfingers
     direction -1 -4.48968e-011 6.92916e-026   
     length 0.472997   
     axis -4.42155e-014 -90 -90   XYZ
    dof rx
    limits (0.0 90.0)
  end
  begin
     id 30
     name rthumb
     direction -0.707107 -6.34848e-011 0.707107   
     length 0.679133   
     axis -90 -45 -6.0103e-014   XYZ
    dof rx rz
    limits (-45.0 45.0)
           (-45.0 45.0)
  end
:hierarchy
  begin
    root lhipjoint rhipjoint lowerback
    lhipjoint lfemur
    lfemur ltibia
    ltibia lfoot
    lfoot ltoes
    rhipjoint rfemur
    rfemur rtibia
    rtibia rfoot
    rfoot rtoes
    lowerback upperback
    upperback thorax
    thorax lowerneck lclavicle rclavicle
    lowerneck upperneck
    upperneck head
    lclavicle lhumerus
    lhumerus lradius
    lradius lwrist
    lwrist lhand lthumb
    lhand lfingers
    rclavicle rhumerus
    rhumerus rradius
    rradius rwrist
    rwrist rhand rthumb
    rhand rfingers
  end

#!OML:ASF H:\Dans Jumps\Project 1\Capture day 1\Session 1\subject.ASF
:FULLY-SPECIFIED
:DEGREES
26
root 0.525407 17.6177 -13.9367 6.71642 -1.79893 -1.00804
lowerback -3.47726 -0.268675 -0.20143
upperback 3.32613 -0.40692 1.20411
thorax 5.40431 -0.235469 1.32816
lowerneck -13.0031 0.732862 -1.77602
upperneck 33.2237 1.17457 1.10216
head 13.3056 0.429872 0.918987
rclavicle -3.13086e-015 6.36111e-015
rhumerus -22.9986 -13.1101 -82.2693
rradius 27.3273
rwrist 30.077
rhand -17.7489 -27.1485
rfingers 7.12502
rthumb 8.5127 -56.9569
lclavicle -3.13086e-015 6.36111e-015
lhumerus -20.4038 -4.10975 89.7355
lradius 22.0367
lwrist 2.41768
lhand -23.7928 -2.1109
lfingers 7.12502
lthumb 2.67747 27.852
rfemur -14.2797 -2.77956 19.5105
rtibia 22.8786
rfoot -14.1145 -3.80067
rtoes 12.2205
lfemur -12.3831 6.05283 -18.6176
ltibia 19.0632
lfoot -10.765 7.25729
ltoes 5.98332
27
root 0.526501 17.6178 -13.9362 6.71701 -1.79851 -1.00176
lowerback -3.48387 -0.265647 -0.202988
upperback 3.32412 -0.402613 1.20059
thorax 5.40585 -0.233316 1.32571
lowerneck -12.993 0.736052 -1.77716
upperneck 33.2234 1.18085 1.09826
head 13.3031 0.432017 0.918508
rclavicle 4.72114e-015 6.95746e-015
rhumerus -22.9015 -12.8909 -82.4277
rradius 27.4532
rwrist 29.9326
rhand -17.7666 -27.1283
rfingers 7.12502
rthumb 8.49559 -56.9374
lclavicle 4.72114e-015 6.95746e-015
lhumerus -20.3143 -4.38769 89.8702
lradius 22.1699
lwrist 2.60128
lhand -23.8521 -2.16871
lfingers 7.12502
lthumb 2.62015 27.7949
rfemur -14.2808 -2.7729 19.4996
rtibia 22.8841
rfoot -14.1191 -3.81016
rtoes 12.2126
lfemur -12.3794 6.05581 -18.6289
ltibia 19.0561
lfoot -10.7647 7.25452
ltoes 5.97503
28
root 0.527469 17.6178 -13.9356 6.71706 -1.79825 -0.998726
lowerback -3.49009 -0.263673 -0.204196
upperback 3.32144 -0.399838 1.19927
thorax 5.40652 -0.23195 1.32523
lowerneck -12.9832 0.741314 -1.77275
upperneck 33.2258 1.18979 1.09084
head 13.302 0.435518 0.916097
rclavicle 1.01877e-014 -1.31198e-014
rhumerus -22.8077 -12.67 -82.5823
rradius 27.5765
rwrist 29.7886
rhand -17.7839 -27.1148
rfingers 7.12502
rthumb 8.47884 -56.9246
lclavicle 1.01877e-014 -1.31198e-014
lhumerus -20.2309 -4.65019 89.9981
lradius 22.3089
lwrist 2.77861
lhand -23.8832 -2.19703
lfingers 7.12502
lthumb 2.59013 27.767
rfemur -14.281 -2.76474 19.4925
rtibia 22.8892
rfoot -14.1272 -3.8205
rtoes 12.2086
lfemur -12.3764 6.05971 -18.6362
ltibia 19.052
lfoot -10.7654 7.25241
ltoes 5.9589
29
root 0.528319 17.6177 -13.9349 6.71752 -1.79629 -0.99862
lowerback -3.49888 -0.263634 -0.2057
upperback 3.31886 -0.399747 1.20002
thorax 5.40885 -0.231977 1.32683
lowerneck -12.9721 0.747866 -1.76256
upperneck 33.2264 1.20041 1.07903
head 13.2998 0.4399 0.911164
rclavicle -5.31749e-015 1.39149e-015
rhumerus -22.7224 -12.4334 -82.7355
rradius 27.7071
rwrist 29.6363
rhand -17.8016 -27.1088
rfingers 7.12502
rthumb 8.46185 -56.9193
lclavicle -5.31749e-015 1.39149e-015
lhumerus -20.1527 -4.90058 90.1195
lradius 22.4584
lwrist 2.96332
lhand -23.8908 -2.20742
lfingers 7.12502
lthumb 2.58281 27.7567
rfemur -14.2803 -2.7581 19.4889
rtibia 22.893
rfoot -14.1335 -3.83049
rtoes 12.2158
lfemur -12.3752 6.06247 -18.6397
ltibia 19.0513
lfoot -10.7667 7.25003
ltoes 5.94561
30
root 0.529071 17.6176 -13.9342 6.71715 -1.79109 -1.00082
lowerback -3.50686 -0.266109 -0.208044
upperback 3.31594 -0.403073 1.20307
thorax 5.4105 -0.233775 1.33102
lowerneck -12.9586 0.755272 -1.75225
upperneck 33.2238 1.21311 1.06444
head 13.2958 0.444854 0.905362
rclavicle 7.20594e-015 -3.97569e-015
rhumerus -22.6428 -12.1849 -82.8861
rradius 27.842
rwrist 29.4749
rhand -17.8134 -27.1156
rfingers 7.12502
rthumb 8.45046 -56.9266
lclavicle 7.20594e-015 -3.97569e-015
lhumerus -20.0794 -5.14041 90.2353
lradius 22.6128
lwrist 3.15523
lhand -23.8853 -2.20295
lfingers 7.12502
lthumb 2.58814 27.7611
rfemur -14.2772 -2.75295 19.4883
rtibia 22.8948
rfoot -14.1392 -3.84134
rtoes 12.2288
lfemur -12.3751 6.06328 -18.64
ltibia 19.0541
lfoot -10.7685 7.2457
ltoes 5.94365
31
root 0.529799 17.6175 -13.9335 6.71648 -1.78334 -1.00394
lowerback -3.51277 -0.269346 -0.210535
upperback 3.31243 -0.407455 1.20739
thorax 5.41037 -0.236121 1.33652
lowerneck -12.9498 0.761927 -1.74392
upperneck 33.2237 1.22547 1.04957
head 13.2938 0.449353 0.899819
rclavicle -7.95139e-016 5.96354e-016
rhumerus -22.5687 -11.9376 -83.0308
rradius 27.9775
rwrist 29.3129
rhand -17.8267 -27.1237
rfingers 7.12502
rthumb 8.43755 -56.9352
lclavicle -7.95139e-016 5.96354e-016
lhumerus -20.0081 -5.36989 90.347
lradius 22.7645
lwrist 3.33809
lhand -23.888 -2.22404
lfingers 7.12502
lthumb 2.58553 27.74
rfemur -14.2732 -2.74863 19.4888
rtibia 22.896
rfoot -14.1448 -3.85413
rtoes 12.2386
lfemur -12.3751 6.06187 -18.6388
ltibia 19.0576
lfoot -10.7703 7.24016
ltoes 5.94457
32
root 0.530439 17.6174 -13.9328 6.71364 -1.77306 -1.0087
lowerback -3.51648 -0.273908 -0.213004
upperback 3.30876 -0.413659 1.21294
thorax 5.40887 -0.239389 1.34315
lowerneck -12.9369 0.767964 -1.74062
upperneck 33.22 1.23748 1.03683
head 13.2893 0.45339 0.895864
rclavicle 4.96962e-016 2.06736e-014
rhumerus -22.4982 -11.6942 -83.1699
rradius 28.1071
rwrist 29.1543
rhand -17.8376 -27.1331
rfingers 7.12502
rthumb 8.42707 -56.9449
lclavicle 4.96962e-016 2.06736e-014
lhumerus -19.9412 -5.59128 90.4535
lradius 22.9173
lwrist 3.52366
lhand -23.8931 -2.23715
lfingers 7.12502
lthumb 2.58056 27.727
rfemur -14.2662 -2.74483 19.4917
rtibia 22.897
rfoot -14.1461 -3.86864
rtoes 12.2466
lfemur -12.3728 6.05968 -18.6351
ltibia 19.0608
lfoot -10.772 7.23248
ltoes 5.94779
33
root 0.531199 17.6175 -13.9324 6.71358 -1.76171 -1.00568
lowerback -3.51722 -0.276515 -0.219655
upperback 3.30426 -0.416832 1.2156
thorax 5.40474 -0.241242 1.34938
lowerneck -12.9331 0.771259 -1.747
upperneck 33.2224 1.24511 1.03401
head 13.2894 0.455569 0.897008
rclavicle -2.38542e-015 1.41137e-014
rhumerus -22.4281 -11.4767 -83.2978
rradius 28.2269
rwrist 29.0186
rhand -17.8522 -27.1192
rfingers 7.12502
rthumb 8.41301 -56.9316
lclavicle -2.38542e-015 1.41137e-014
lhumerus -19.8695 -5.81036 90.5583
lradius 23.0531
lwrist 3.6882
lhand -23.9269 -2.29616
lfingers 7.12502
lthumb 2.54793 27.6684
rfemur -14.2633 -2.74275 19.4861
rtibia 22.8976
rfoot -14.1456 -3.88466
rtoes 12.2435
lfemur -12.3741 6.05437 -18.6406
ltibia 19.0634
lfoot -10.7731 7.22599
ltoes 5.95218
34
root 0.531954 17.6175 -13.9319 6.71318 -1.75078 -1.00358
lowerback -3.51774 -0.278841 -0.225446
upperback 3.3001 -0.419721 1.21905
thorax 5.40083 -0.24294 1.35597
lowerneck -12.9291 0.773848 -1.75829
upperneck 33.2246 1.25214 1.03391
head 13.2892 0.45724 0.899992
rclavicle 8.94531e-016 6.55989e-015
rhumerus -22.3613 -11.2718 -83.4173
rradius 28.34
rwrist 28.8981
rhand -17.8612 -27.1036
rfingers 7.12502
rthumb 8.40427 -56.9164
lclavicle 8.94531e-016 6.55989e-015
lhumerus -19.8013 -6.02873 90.6602
lradius 23.1815
lwrist 3.8406
lhand -23.9741 -2.37909
lfingers 7.12502
lthumb 2.50233 27.586
rfemur -14.2597 -2.74109 19.4817
rtibia 22.8976
rfoot -14.1446 -3.90111
rtoes 12.2322
lfemur -12.375 6.04864 -18.6451
ltibia 19.0662
lfoot -10.7752 7.22068
ltoes 5.95538
35
root 0.532704 17.6175 -13.9314 6.7127 -1.74126 -1.00391
lowerback -3.51994 -0.280402 -0.22782
upperback 3.29703 -0.421817 1.22257
thorax 5.39898 -0.244126 1.36077
lowerneck -12.9249 0.775392 -1.76952
upperneck 33.226 1.2576 1.03381
head 13.2888 0.458241 0.902722
rclavicle -9.24349e-015 -8.94531e-015
rhumerus -22.2983 -11.0802 -83.5299
rradius 28.4434
rwrist 28.7967
rhand -17.8766 -27.0684
rfingers 7.12502
rthumb 8.38941 -56.8818
lclavicle -9.24349e-015 -8.94531e-015
lhumerus -19.7357 -6.24011 90.7558
lradius 23.3118
lwrist 3.98882
lhand -24.0118 -2.43944
lfingers 7.12502
lthumb 2.466 27.526
rfemur -14.2558 -2.73864 19.4799
rtibia 22.897
rfoot -14.1447 -3.91609
rtoes 12.2226
lfemur -12.3751 6.04487 -18.647
ltibia 19.0689
lfoot -10.7782 7.21519
ltoes 5.96331
36
root 0.533408 17.6175 -13.9309 6.71115 -1.73186 -1.00626
lowerback -3.52134 -0.28177 -0.228061
upperback 3.29508 -0.423822 1.22678
thorax 5.39783 -0.245206 1.3651
lowerneck -12.9232 0.777882 -1.77714
upperneck 33.2305 1.26361 1.03342
head 13.2902 0.45986 0.904843
rclavicle -1.49089e-015 3.97569e-015
rhumerus -22.2383 -10.9037 -83.6349
rradius 28.5393
rwrist 28.7118
rhand -17.8916 -27.0328
rfingers 7.12502
rthumb 8.375 -56.8468
lclavicle -1.49089e-015 3.97569e-015
lhumerus -19.6727 -6.44393 90.8454
lradius 23.4401
lwrist 4.12355
lhand -24.0366 -2.48315
lfingers 7.12502
lthumb 2.44202 27.4826
rfemur -14.2499 -2.73477 19.4802
rtibia 22.8949
rfoot -14.1456 -3.93063
rtoes 12.2139
lfemur -12.3747 6.04171 -18.6464
ltibia 19.0728
lfoot -10.7819 7.20925
ltoes 5.97069
37
root 0.534122 17.6174 -13.9303 6.70906 -1.72272 -1.00922
lowerback -3.52333 -0.282344 -0.226445
upperback 3.29389 -0.424874 1.23067
thorax 5.39778 -0.245742 1.36813
lowerneck -12.9226 0.780476 -1.78092
upperneck 33.2373 1.2688 1.03285
head 13.2928 0.461557 0.906133
rclavicle 7.45443e-016 -1.61016e-014
rhumerus -22.1835 -10.7434 -83.7322
rradius 28.6296
rwrist 28.6401
rhand -17.9089 -26.9967
rfingers 7.12502
rthumb 8.35827 -56.8113
lclavicle 7.45443e-016 -1.61016e-014
lhumerus -19.6146 -6.64229 90.9303
lradius 23.565
lwrist 4.24832
lhand -24.0671 -2.54395
lfingers 7.12502
lthumb 2.41251 27.4222
rfemur -14.2422 -2.73163 19.481
rtibia 22.8918
rfoot -14.1471 -3.9436
rtoes 12.2062
lfemur -12.3736 6.03836 -18.6451
ltibia 19.0776
lfoot -10.7857 7.20441
ltoes 5.9758
